<?xml version="1.0" ?>
<!-- Uploaded to: SVG Repo, www.svgrepo.com, Generator: SVG Repo Mixer Tools -->
<svg width="800px" height="800px" viewBox="0 0 32 32" xmlns="http://www.w3.org/2000/svg">
<defs>
<style>.cls-1{fill:#04009a;}.cls-2{fill:#77acf1;}</style>
</defs>
<g data-name="19. Reminder" id="_19._Reminder">
<path class="cls-1" d="M21.12,8.71,18.41,6H19a2,2,0,0,0,2-2V2a2,2,0,0,0-2-2H3A2,2,0,0,0,1,2V4A2,2,0,0,0,3,6h.59L.88,8.71A3,3,0,0,0,0,10.83V29a3,3,0,0,0,3,3H16a1,1,0,0,0,0-2H3a1,1,0,0,1-1-1V27H13a1,1,0,0,0,0-2H2V13H20v1a1,1,0,0,0,2,0V10.83A3,3,0,0,0,21.12,8.71ZM3,2H19V4H3Zm17,9H2v-.17a1,1,0,0,1,.29-.71L6.41,6h9.18l4.12,4.12a1,1,0,0,1,.29.71Z"/>
<path class="cls-2" d="M14,18H12V16a1,1,0,0,0-2,0v2H8a1,1,0,0,0,0,2h2v2a1,1,0,0,0,2,0V20h2a1,1,0,0,0,0-2Z"/>
<path class="cls-2" d="M24,32a8,8,0,1,1,8-8A8,8,0,0,1,24,32Zm0-14a6,6,0,1,0,6,6A6,6,0,0,0,24,18Z"/>
<path class="cls-2" d="M22,27a1,1,0,0,1-.71-.29,1,1,0,0,1,0-1.42L23,23.59V21a1,1,0,0,1,2,0v3a1,1,0,0,1-.29.71l-2,2A1,1,0,0,1,22,27Z"/>
</g>
</svg>